<mxfile host="app.diagrams.net" modified="2023-10-09T16:14:40.693Z" agent="Mozilla/5.0 (Windows NT 10.0; Win64; x64) AppleWebKit/537.36 (KHTML, like Gecko) Chrome/117.0.0.0 Safari/537.36" etag="PO7jKm_EtG3hE7O4D1HN" version="22.0.4" type="device">
  <diagram name="Сторінка-1" id="2Ztt9p2ZuX3YrXUO_8mU">
    <mxGraphModel dx="1000" dy="1696" grid="1" gridSize="10" guides="1" tooltips="1" connect="1" arrows="1" fold="1" page="1" pageScale="1" pageWidth="827" pageHeight="1169" math="0" shadow="0">
      <root>
        <mxCell id="0" />
        <mxCell id="1" parent="0" />
        <mxCell id="2jRnqf5aCOVSNF-pBYzn-1" value="Cell" style="swimlane;fontStyle=1;align=center;verticalAlign=top;childLayout=stackLayout;horizontal=1;startSize=26;horizontalStack=0;resizeParent=1;resizeParentMax=0;resizeLast=0;collapsible=1;marginBottom=0;whiteSpace=wrap;html=1;" vertex="1" parent="1">
          <mxGeometry x="270" y="160" width="160" height="190" as="geometry" />
        </mxCell>
        <mxCell id="2jRnqf5aCOVSNF-pBYzn-2" value="-formula: Formula&lt;br&gt;-value: Value&lt;br&gt;-address: Address" style="text;strokeColor=none;fillColor=none;align=left;verticalAlign=top;spacingLeft=4;spacingRight=4;overflow=hidden;rotatable=0;points=[[0,0.5],[1,0.5]];portConstraint=eastwest;whiteSpace=wrap;html=1;" vertex="1" parent="2jRnqf5aCOVSNF-pBYzn-1">
          <mxGeometry y="26" width="160" height="44" as="geometry" />
        </mxCell>
        <mxCell id="2jRnqf5aCOVSNF-pBYzn-3" value="" style="line;strokeWidth=1;fillColor=none;align=left;verticalAlign=middle;spacingTop=-1;spacingLeft=3;spacingRight=3;rotatable=0;labelPosition=right;points=[];portConstraint=eastwest;strokeColor=inherit;" vertex="1" parent="2jRnqf5aCOVSNF-pBYzn-1">
          <mxGeometry y="70" width="160" height="8" as="geometry" />
        </mxCell>
        <mxCell id="2jRnqf5aCOVSNF-pBYzn-4" value="+getFormula(): Formula&lt;br&gt;+setFormula(Formula, &amp;lt;Value&amp;gt;): void&lt;br&gt;+getValue(): Value&lt;br&gt;+setValue(dynamic value): void&lt;br&gt;+getAddress(): Address" style="text;strokeColor=none;fillColor=none;align=left;verticalAlign=top;spacingLeft=4;spacingRight=4;overflow=hidden;rotatable=0;points=[[0,0.5],[1,0.5]];portConstraint=eastwest;whiteSpace=wrap;html=1;" vertex="1" parent="2jRnqf5aCOVSNF-pBYzn-1">
          <mxGeometry y="78" width="160" height="112" as="geometry" />
        </mxCell>
        <mxCell id="2jRnqf5aCOVSNF-pBYzn-10" value="Spreadsheet" style="swimlane;fontStyle=1;align=center;verticalAlign=top;childLayout=stackLayout;horizontal=1;startSize=26;horizontalStack=0;resizeParent=1;resizeParentMax=0;resizeLast=0;collapsible=1;marginBottom=0;whiteSpace=wrap;html=1;" vertex="1" parent="1">
          <mxGeometry x="270" y="-90" width="160" height="170" as="geometry" />
        </mxCell>
        <mxCell id="2jRnqf5aCOVSNF-pBYzn-11" value="+ cells: Cell[][]" style="text;strokeColor=none;fillColor=none;align=left;verticalAlign=top;spacingLeft=4;spacingRight=4;overflow=hidden;rotatable=0;points=[[0,0.5],[1,0.5]];portConstraint=eastwest;whiteSpace=wrap;html=1;" vertex="1" parent="2jRnqf5aCOVSNF-pBYzn-10">
          <mxGeometry y="26" width="160" height="26" as="geometry" />
        </mxCell>
        <mxCell id="2jRnqf5aCOVSNF-pBYzn-12" value="" style="line;strokeWidth=1;fillColor=none;align=left;verticalAlign=middle;spacingTop=-1;spacingLeft=3;spacingRight=3;rotatable=0;labelPosition=right;points=[];portConstraint=eastwest;strokeColor=inherit;" vertex="1" parent="2jRnqf5aCOVSNF-pBYzn-10">
          <mxGeometry y="52" width="160" height="8" as="geometry" />
        </mxCell>
        <mxCell id="2jRnqf5aCOVSNF-pBYzn-13" value="+getCell(row: int, col: string): Cell&lt;br&gt;+setCell(Cell): void&lt;br&gt;+ saveToFile(fileName: String): void&lt;br&gt;+uploadFromFile(fileName: String): void" style="text;strokeColor=none;fillColor=none;align=left;verticalAlign=top;spacingLeft=4;spacingRight=4;overflow=hidden;rotatable=0;points=[[0,0.5],[1,0.5]];portConstraint=eastwest;whiteSpace=wrap;html=1;" vertex="1" parent="2jRnqf5aCOVSNF-pBYzn-10">
          <mxGeometry y="60" width="160" height="110" as="geometry" />
        </mxCell>
        <mxCell id="2jRnqf5aCOVSNF-pBYzn-15" value="Address" style="swimlane;fontStyle=1;align=center;verticalAlign=top;childLayout=stackLayout;horizontal=1;startSize=26;horizontalStack=0;resizeParent=1;resizeParentMax=0;resizeLast=0;collapsible=1;marginBottom=0;whiteSpace=wrap;html=1;" vertex="1" parent="1">
          <mxGeometry x="540" y="138" width="160" height="68" as="geometry" />
        </mxCell>
        <mxCell id="2jRnqf5aCOVSNF-pBYzn-16" value="+row: int&lt;br&gt;+col: string" style="text;strokeColor=none;fillColor=none;align=left;verticalAlign=top;spacingLeft=4;spacingRight=4;overflow=hidden;rotatable=0;points=[[0,0.5],[1,0.5]];portConstraint=eastwest;whiteSpace=wrap;html=1;" vertex="1" parent="2jRnqf5aCOVSNF-pBYzn-15">
          <mxGeometry y="26" width="160" height="34" as="geometry" />
        </mxCell>
        <mxCell id="2jRnqf5aCOVSNF-pBYzn-17" value="" style="line;strokeWidth=1;fillColor=none;align=left;verticalAlign=middle;spacingTop=-1;spacingLeft=3;spacingRight=3;rotatable=0;labelPosition=right;points=[];portConstraint=eastwest;strokeColor=inherit;" vertex="1" parent="2jRnqf5aCOVSNF-pBYzn-15">
          <mxGeometry y="60" width="160" height="8" as="geometry" />
        </mxCell>
        <mxCell id="2jRnqf5aCOVSNF-pBYzn-23" value="&lt;i&gt;Formula&lt;/i&gt;" style="swimlane;fontStyle=1;align=center;verticalAlign=top;childLayout=stackLayout;horizontal=1;startSize=26;horizontalStack=0;resizeParent=1;resizeParentMax=0;resizeLast=0;collapsible=1;marginBottom=0;whiteSpace=wrap;html=1;" vertex="1" parent="1">
          <mxGeometry x="270" y="410" width="160" height="60" as="geometry" />
        </mxCell>
        <mxCell id="2jRnqf5aCOVSNF-pBYzn-25" value="" style="line;strokeWidth=1;fillColor=none;align=left;verticalAlign=middle;spacingTop=-1;spacingLeft=3;spacingRight=3;rotatable=0;labelPosition=right;points=[];portConstraint=eastwest;strokeColor=inherit;" vertex="1" parent="2jRnqf5aCOVSNF-pBYzn-23">
          <mxGeometry y="26" width="160" height="8" as="geometry" />
        </mxCell>
        <mxCell id="2jRnqf5aCOVSNF-pBYzn-26" value="&lt;i&gt;+ evaluate(&amp;lt;Value&amp;gt;): Value&lt;/i&gt;" style="text;strokeColor=none;fillColor=none;align=left;verticalAlign=top;spacingLeft=4;spacingRight=4;overflow=hidden;rotatable=0;points=[[0,0.5],[1,0.5]];portConstraint=eastwest;whiteSpace=wrap;html=1;" vertex="1" parent="2jRnqf5aCOVSNF-pBYzn-23">
          <mxGeometry y="34" width="160" height="26" as="geometry" />
        </mxCell>
        <mxCell id="2jRnqf5aCOVSNF-pBYzn-28" value="Sum" style="swimlane;fontStyle=1;align=center;verticalAlign=top;childLayout=stackLayout;horizontal=1;startSize=26;horizontalStack=0;resizeParent=1;resizeParentMax=0;resizeLast=0;collapsible=1;marginBottom=0;whiteSpace=wrap;html=1;" vertex="1" parent="1">
          <mxGeometry x="10" y="580" width="160" height="60" as="geometry" />
        </mxCell>
        <mxCell id="2jRnqf5aCOVSNF-pBYzn-30" value="" style="line;strokeWidth=1;fillColor=none;align=left;verticalAlign=middle;spacingTop=-1;spacingLeft=3;spacingRight=3;rotatable=0;labelPosition=right;points=[];portConstraint=eastwest;strokeColor=inherit;" vertex="1" parent="2jRnqf5aCOVSNF-pBYzn-28">
          <mxGeometry y="26" width="160" height="8" as="geometry" />
        </mxCell>
        <mxCell id="2jRnqf5aCOVSNF-pBYzn-31" value="+ evaluate(&amp;lt;Value&amp;gt;): Value" style="text;strokeColor=none;fillColor=none;align=left;verticalAlign=top;spacingLeft=4;spacingRight=4;overflow=hidden;rotatable=0;points=[[0,0.5],[1,0.5]];portConstraint=eastwest;whiteSpace=wrap;html=1;" vertex="1" parent="2jRnqf5aCOVSNF-pBYzn-28">
          <mxGeometry y="34" width="160" height="26" as="geometry" />
        </mxCell>
        <mxCell id="2jRnqf5aCOVSNF-pBYzn-36" value="Difference" style="swimlane;fontStyle=1;align=center;verticalAlign=top;childLayout=stackLayout;horizontal=1;startSize=26;horizontalStack=0;resizeParent=1;resizeParentMax=0;resizeLast=0;collapsible=1;marginBottom=0;whiteSpace=wrap;html=1;" vertex="1" parent="1">
          <mxGeometry x="180" y="580" width="160" height="60" as="geometry" />
        </mxCell>
        <mxCell id="2jRnqf5aCOVSNF-pBYzn-38" value="" style="line;strokeWidth=1;fillColor=none;align=left;verticalAlign=middle;spacingTop=-1;spacingLeft=3;spacingRight=3;rotatable=0;labelPosition=right;points=[];portConstraint=eastwest;strokeColor=inherit;" vertex="1" parent="2jRnqf5aCOVSNF-pBYzn-36">
          <mxGeometry y="26" width="160" height="8" as="geometry" />
        </mxCell>
        <mxCell id="2jRnqf5aCOVSNF-pBYzn-39" value="+ evaluate(&amp;lt;Value&amp;gt;): Value" style="text;strokeColor=none;fillColor=none;align=left;verticalAlign=top;spacingLeft=4;spacingRight=4;overflow=hidden;rotatable=0;points=[[0,0.5],[1,0.5]];portConstraint=eastwest;whiteSpace=wrap;html=1;" vertex="1" parent="2jRnqf5aCOVSNF-pBYzn-36">
          <mxGeometry y="34" width="160" height="26" as="geometry" />
        </mxCell>
        <mxCell id="2jRnqf5aCOVSNF-pBYzn-40" value="Fraction" style="swimlane;fontStyle=1;align=center;verticalAlign=top;childLayout=stackLayout;horizontal=1;startSize=26;horizontalStack=0;resizeParent=1;resizeParentMax=0;resizeLast=0;collapsible=1;marginBottom=0;whiteSpace=wrap;html=1;" vertex="1" parent="1">
          <mxGeometry x="350" y="580" width="160" height="60" as="geometry" />
        </mxCell>
        <mxCell id="2jRnqf5aCOVSNF-pBYzn-42" value="" style="line;strokeWidth=1;fillColor=none;align=left;verticalAlign=middle;spacingTop=-1;spacingLeft=3;spacingRight=3;rotatable=0;labelPosition=right;points=[];portConstraint=eastwest;strokeColor=inherit;" vertex="1" parent="2jRnqf5aCOVSNF-pBYzn-40">
          <mxGeometry y="26" width="160" height="8" as="geometry" />
        </mxCell>
        <mxCell id="2jRnqf5aCOVSNF-pBYzn-43" value="+ evaluate(&amp;lt;Value&amp;gt;): Value" style="text;strokeColor=none;fillColor=none;align=left;verticalAlign=top;spacingLeft=4;spacingRight=4;overflow=hidden;rotatable=0;points=[[0,0.5],[1,0.5]];portConstraint=eastwest;whiteSpace=wrap;html=1;" vertex="1" parent="2jRnqf5aCOVSNF-pBYzn-40">
          <mxGeometry y="34" width="160" height="26" as="geometry" />
        </mxCell>
        <mxCell id="2jRnqf5aCOVSNF-pBYzn-44" value="Multiplication" style="swimlane;fontStyle=1;align=center;verticalAlign=top;childLayout=stackLayout;horizontal=1;startSize=26;horizontalStack=0;resizeParent=1;resizeParentMax=0;resizeLast=0;collapsible=1;marginBottom=0;whiteSpace=wrap;html=1;" vertex="1" parent="1">
          <mxGeometry x="520" y="580" width="160" height="60" as="geometry" />
        </mxCell>
        <mxCell id="2jRnqf5aCOVSNF-pBYzn-46" value="" style="line;strokeWidth=1;fillColor=none;align=left;verticalAlign=middle;spacingTop=-1;spacingLeft=3;spacingRight=3;rotatable=0;labelPosition=right;points=[];portConstraint=eastwest;strokeColor=inherit;" vertex="1" parent="2jRnqf5aCOVSNF-pBYzn-44">
          <mxGeometry y="26" width="160" height="8" as="geometry" />
        </mxCell>
        <mxCell id="2jRnqf5aCOVSNF-pBYzn-47" value="+ evaluate(&amp;lt;Value&amp;gt;): Value" style="text;strokeColor=none;fillColor=none;align=left;verticalAlign=top;spacingLeft=4;spacingRight=4;overflow=hidden;rotatable=0;points=[[0,0.5],[1,0.5]];portConstraint=eastwest;whiteSpace=wrap;html=1;" vertex="1" parent="2jRnqf5aCOVSNF-pBYzn-44">
          <mxGeometry y="34" width="160" height="26" as="geometry" />
        </mxCell>
        <mxCell id="2jRnqf5aCOVSNF-pBYzn-55" value="Value" style="swimlane;fontStyle=1;align=center;verticalAlign=top;childLayout=stackLayout;horizontal=1;startSize=26;horizontalStack=0;resizeParent=1;resizeParentMax=0;resizeLast=0;collapsible=1;marginBottom=0;whiteSpace=wrap;html=1;" vertex="1" parent="1">
          <mxGeometry x="640" y="220" width="160" height="140" as="geometry" />
        </mxCell>
        <mxCell id="2jRnqf5aCOVSNF-pBYzn-57" value="" style="line;strokeWidth=1;fillColor=none;align=left;verticalAlign=middle;spacingTop=-1;spacingLeft=3;spacingRight=3;rotatable=0;labelPosition=right;points=[];portConstraint=eastwest;strokeColor=inherit;" vertex="1" parent="2jRnqf5aCOVSNF-pBYzn-55">
          <mxGeometry y="26" width="160" height="34" as="geometry" />
        </mxCell>
        <mxCell id="2jRnqf5aCOVSNF-pBYzn-58" value="+setContent(dynamic): void&lt;br&gt;+getContent(): dynamic&lt;br&gt;+isNumber(content): boolean&lt;br&gt;+isFormula(content): boolean" style="text;strokeColor=none;fillColor=none;align=left;verticalAlign=top;spacingLeft=4;spacingRight=4;overflow=hidden;rotatable=0;points=[[0,0.5],[1,0.5]];portConstraint=eastwest;whiteSpace=wrap;html=1;" vertex="1" parent="2jRnqf5aCOVSNF-pBYzn-55">
          <mxGeometry y="60" width="160" height="80" as="geometry" />
        </mxCell>
        <mxCell id="2jRnqf5aCOVSNF-pBYzn-61" value="Average" style="swimlane;fontStyle=1;align=center;verticalAlign=top;childLayout=stackLayout;horizontal=1;startSize=26;horizontalStack=0;resizeParent=1;resizeParentMax=0;resizeLast=0;collapsible=1;marginBottom=0;whiteSpace=wrap;html=1;" vertex="1" parent="1">
          <mxGeometry x="690" y="580" width="160" height="60" as="geometry" />
        </mxCell>
        <mxCell id="2jRnqf5aCOVSNF-pBYzn-63" value="" style="line;strokeWidth=1;fillColor=none;align=left;verticalAlign=middle;spacingTop=-1;spacingLeft=3;spacingRight=3;rotatable=0;labelPosition=right;points=[];portConstraint=eastwest;strokeColor=inherit;" vertex="1" parent="2jRnqf5aCOVSNF-pBYzn-61">
          <mxGeometry y="26" width="160" height="8" as="geometry" />
        </mxCell>
        <mxCell id="2jRnqf5aCOVSNF-pBYzn-64" value="+ evaluate(&amp;lt;Value&amp;gt;): Value" style="text;strokeColor=none;fillColor=none;align=left;verticalAlign=top;spacingLeft=4;spacingRight=4;overflow=hidden;rotatable=0;points=[[0,0.5],[1,0.5]];portConstraint=eastwest;whiteSpace=wrap;html=1;" vertex="1" parent="2jRnqf5aCOVSNF-pBYzn-61">
          <mxGeometry y="34" width="160" height="26" as="geometry" />
        </mxCell>
        <mxCell id="2jRnqf5aCOVSNF-pBYzn-65" value="Minimal" style="swimlane;fontStyle=1;align=center;verticalAlign=top;childLayout=stackLayout;horizontal=1;startSize=26;horizontalStack=0;resizeParent=1;resizeParentMax=0;resizeLast=0;collapsible=1;marginBottom=0;whiteSpace=wrap;html=1;" vertex="1" parent="1">
          <mxGeometry x="860" y="580" width="160" height="60" as="geometry" />
        </mxCell>
        <mxCell id="2jRnqf5aCOVSNF-pBYzn-67" value="" style="line;strokeWidth=1;fillColor=none;align=left;verticalAlign=middle;spacingTop=-1;spacingLeft=3;spacingRight=3;rotatable=0;labelPosition=right;points=[];portConstraint=eastwest;strokeColor=inherit;" vertex="1" parent="2jRnqf5aCOVSNF-pBYzn-65">
          <mxGeometry y="26" width="160" height="8" as="geometry" />
        </mxCell>
        <mxCell id="2jRnqf5aCOVSNF-pBYzn-68" value="+ evaluate(&amp;lt;Value&amp;gt;): Value" style="text;strokeColor=none;fillColor=none;align=left;verticalAlign=top;spacingLeft=4;spacingRight=4;overflow=hidden;rotatable=0;points=[[0,0.5],[1,0.5]];portConstraint=eastwest;whiteSpace=wrap;html=1;" vertex="1" parent="2jRnqf5aCOVSNF-pBYzn-65">
          <mxGeometry y="34" width="160" height="26" as="geometry" />
        </mxCell>
        <mxCell id="2jRnqf5aCOVSNF-pBYzn-69" value="Maximal" style="swimlane;fontStyle=1;align=center;verticalAlign=top;childLayout=stackLayout;horizontal=1;startSize=26;horizontalStack=0;resizeParent=1;resizeParentMax=0;resizeLast=0;collapsible=1;marginBottom=0;whiteSpace=wrap;html=1;" vertex="1" parent="1">
          <mxGeometry x="1030" y="580" width="160" height="60" as="geometry" />
        </mxCell>
        <mxCell id="2jRnqf5aCOVSNF-pBYzn-71" value="" style="line;strokeWidth=1;fillColor=none;align=left;verticalAlign=middle;spacingTop=-1;spacingLeft=3;spacingRight=3;rotatable=0;labelPosition=right;points=[];portConstraint=eastwest;strokeColor=inherit;" vertex="1" parent="2jRnqf5aCOVSNF-pBYzn-69">
          <mxGeometry y="26" width="160" height="8" as="geometry" />
        </mxCell>
        <mxCell id="2jRnqf5aCOVSNF-pBYzn-72" value="+ evaluate(&amp;lt;Value&amp;gt;): Value" style="text;strokeColor=none;fillColor=none;align=left;verticalAlign=top;spacingLeft=4;spacingRight=4;overflow=hidden;rotatable=0;points=[[0,0.5],[1,0.5]];portConstraint=eastwest;whiteSpace=wrap;html=1;" vertex="1" parent="2jRnqf5aCOVSNF-pBYzn-69">
          <mxGeometry y="34" width="160" height="26" as="geometry" />
        </mxCell>
        <mxCell id="2jRnqf5aCOVSNF-pBYzn-73" value="Count" style="swimlane;fontStyle=1;align=center;verticalAlign=top;childLayout=stackLayout;horizontal=1;startSize=26;horizontalStack=0;resizeParent=1;resizeParentMax=0;resizeLast=0;collapsible=1;marginBottom=0;whiteSpace=wrap;html=1;" vertex="1" parent="1">
          <mxGeometry x="1200" y="580" width="160" height="60" as="geometry" />
        </mxCell>
        <mxCell id="2jRnqf5aCOVSNF-pBYzn-75" value="" style="line;strokeWidth=1;fillColor=none;align=left;verticalAlign=middle;spacingTop=-1;spacingLeft=3;spacingRight=3;rotatable=0;labelPosition=right;points=[];portConstraint=eastwest;strokeColor=inherit;" vertex="1" parent="2jRnqf5aCOVSNF-pBYzn-73">
          <mxGeometry y="26" width="160" height="8" as="geometry" />
        </mxCell>
        <mxCell id="2jRnqf5aCOVSNF-pBYzn-76" value="+ evaluate(&amp;lt;Value&amp;gt;): Value" style="text;strokeColor=none;fillColor=none;align=left;verticalAlign=top;spacingLeft=4;spacingRight=4;overflow=hidden;rotatable=0;points=[[0,0.5],[1,0.5]];portConstraint=eastwest;whiteSpace=wrap;html=1;" vertex="1" parent="2jRnqf5aCOVSNF-pBYzn-73">
          <mxGeometry y="34" width="160" height="26" as="geometry" />
        </mxCell>
        <mxCell id="2jRnqf5aCOVSNF-pBYzn-82" value="" style="endArrow=block;endSize=16;endFill=0;html=1;rounded=0;exitX=0.165;exitY=0.417;exitDx=0;exitDy=0;exitPerimeter=0;" edge="1" parent="1" source="2jRnqf5aCOVSNF-pBYzn-83">
          <mxGeometry width="160" relative="1" as="geometry">
            <mxPoint x="260" y="530" as="sourcePoint" />
            <mxPoint x="254" y="580" as="targetPoint" />
          </mxGeometry>
        </mxCell>
        <mxCell id="2jRnqf5aCOVSNF-pBYzn-83" value="" style="line;strokeWidth=1;fillColor=none;align=left;verticalAlign=middle;spacingTop=-1;spacingLeft=3;spacingRight=3;rotatable=0;labelPosition=right;points=[];portConstraint=eastwest;strokeColor=inherit;" vertex="1" parent="1">
          <mxGeometry x="40" y="520" width="1300" height="8" as="geometry" />
        </mxCell>
        <mxCell id="2jRnqf5aCOVSNF-pBYzn-84" value="" style="endArrow=block;endSize=16;endFill=0;html=1;rounded=0;exitX=0;exitY=0.415;exitDx=0;exitDy=0;exitPerimeter=0;entryX=0.171;entryY=0.014;entryDx=0;entryDy=0;entryPerimeter=0;" edge="1" parent="1" source="2jRnqf5aCOVSNF-pBYzn-83" target="2jRnqf5aCOVSNF-pBYzn-28">
          <mxGeometry width="160" relative="1" as="geometry">
            <mxPoint x="42.01999999999998" y="521.3360000000002" as="sourcePoint" />
            <mxPoint x="37" y="580" as="targetPoint" />
          </mxGeometry>
        </mxCell>
        <mxCell id="2jRnqf5aCOVSNF-pBYzn-85" value="" style="endArrow=block;endSize=16;endFill=0;html=1;rounded=0;exitX=0.287;exitY=0.5;exitDx=0;exitDy=0;exitPerimeter=0;entryX=0.429;entryY=0.01;entryDx=0;entryDy=0;entryPerimeter=0;" edge="1" parent="1" source="2jRnqf5aCOVSNF-pBYzn-83" target="2jRnqf5aCOVSNF-pBYzn-40">
          <mxGeometry width="160" relative="1" as="geometry">
            <mxPoint x="416" y="533" as="sourcePoint" />
            <mxPoint x="418" y="590" as="targetPoint" />
          </mxGeometry>
        </mxCell>
        <mxCell id="2jRnqf5aCOVSNF-pBYzn-86" value="" style="endArrow=block;endSize=16;endFill=0;html=1;rounded=0;exitX=0.287;exitY=0.5;exitDx=0;exitDy=0;exitPerimeter=0;entryX=0.429;entryY=0.01;entryDx=0;entryDy=0;entryPerimeter=0;" edge="1" parent="1">
          <mxGeometry width="160" relative="1" as="geometry">
            <mxPoint x="586" y="524" as="sourcePoint" />
            <mxPoint x="589" y="581" as="targetPoint" />
          </mxGeometry>
        </mxCell>
        <mxCell id="2jRnqf5aCOVSNF-pBYzn-87" value="" style="endArrow=block;endSize=16;endFill=0;html=1;rounded=0;exitX=0.287;exitY=0.5;exitDx=0;exitDy=0;exitPerimeter=0;entryX=0.429;entryY=0.01;entryDx=0;entryDy=0;entryPerimeter=0;" edge="1" parent="1">
          <mxGeometry width="160" relative="1" as="geometry">
            <mxPoint x="766" y="524" as="sourcePoint" />
            <mxPoint x="769" y="581" as="targetPoint" />
          </mxGeometry>
        </mxCell>
        <mxCell id="2jRnqf5aCOVSNF-pBYzn-88" value="" style="endArrow=block;endSize=16;endFill=0;html=1;rounded=0;exitX=0.287;exitY=0.5;exitDx=0;exitDy=0;exitPerimeter=0;entryX=0.429;entryY=0.01;entryDx=0;entryDy=0;entryPerimeter=0;" edge="1" parent="1">
          <mxGeometry width="160" relative="1" as="geometry">
            <mxPoint x="936" y="524" as="sourcePoint" />
            <mxPoint x="939" y="581" as="targetPoint" />
          </mxGeometry>
        </mxCell>
        <mxCell id="2jRnqf5aCOVSNF-pBYzn-89" value="" style="endArrow=block;endSize=16;endFill=0;html=1;rounded=0;exitX=0.287;exitY=0.5;exitDx=0;exitDy=0;exitPerimeter=0;entryX=0.429;entryY=0.01;entryDx=0;entryDy=0;entryPerimeter=0;" edge="1" parent="1">
          <mxGeometry width="160" relative="1" as="geometry">
            <mxPoint x="1116" y="524" as="sourcePoint" />
            <mxPoint x="1119" y="581" as="targetPoint" />
          </mxGeometry>
        </mxCell>
        <mxCell id="2jRnqf5aCOVSNF-pBYzn-90" value="" style="endArrow=block;endSize=16;endFill=0;html=1;rounded=0;exitX=0.287;exitY=0.5;exitDx=0;exitDy=0;exitPerimeter=0;entryX=0.429;entryY=0.01;entryDx=0;entryDy=0;entryPerimeter=0;" edge="1" parent="1">
          <mxGeometry width="160" relative="1" as="geometry">
            <mxPoint x="1339" y="524" as="sourcePoint" />
            <mxPoint x="1342" y="581" as="targetPoint" />
          </mxGeometry>
        </mxCell>
        <mxCell id="2jRnqf5aCOVSNF-pBYzn-93" value="" style="endArrow=none;html=1;rounded=0;entryX=0.485;entryY=0.966;entryDx=0;entryDy=0;entryPerimeter=0;exitX=0.236;exitY=0.546;exitDx=0;exitDy=0;exitPerimeter=0;" edge="1" parent="1" source="2jRnqf5aCOVSNF-pBYzn-83" target="2jRnqf5aCOVSNF-pBYzn-26">
          <mxGeometry width="50" height="50" relative="1" as="geometry">
            <mxPoint x="430" y="550" as="sourcePoint" />
            <mxPoint x="480" y="500" as="targetPoint" />
          </mxGeometry>
        </mxCell>
        <mxCell id="2jRnqf5aCOVSNF-pBYzn-95" value="1" style="endArrow=open;html=1;endSize=12;startArrow=diamondThin;startSize=14;startFill=1;edgeStyle=orthogonalEdgeStyle;align=left;verticalAlign=bottom;rounded=0;exitX=0.434;exitY=1.004;exitDx=0;exitDy=0;exitPerimeter=0;entryX=0.436;entryY=-0.006;entryDx=0;entryDy=0;entryPerimeter=0;" edge="1" parent="1" source="2jRnqf5aCOVSNF-pBYzn-13" target="2jRnqf5aCOVSNF-pBYzn-1">
          <mxGeometry x="-0.7219" y="11" relative="1" as="geometry">
            <mxPoint x="340" y="100" as="sourcePoint" />
            <mxPoint x="340" y="150" as="targetPoint" />
            <mxPoint as="offset" />
          </mxGeometry>
        </mxCell>
        <mxCell id="2jRnqf5aCOVSNF-pBYzn-96" value="*" style="text;html=1;align=center;verticalAlign=middle;resizable=0;points=[];autosize=1;strokeColor=none;fillColor=none;" vertex="1" parent="1">
          <mxGeometry x="335" y="138" width="30" height="30" as="geometry" />
        </mxCell>
        <mxCell id="2jRnqf5aCOVSNF-pBYzn-97" value="1" style="endArrow=open;html=1;endSize=12;startArrow=diamondThin;startSize=14;startFill=1;edgeStyle=orthogonalEdgeStyle;align=left;verticalAlign=bottom;rounded=0;" edge="1" parent="1" source="2jRnqf5aCOVSNF-pBYzn-1" target="2jRnqf5aCOVSNF-pBYzn-16">
          <mxGeometry x="-0.8182" y="11" relative="1" as="geometry">
            <mxPoint x="349" y="100" as="sourcePoint" />
            <mxPoint x="350" y="169" as="targetPoint" />
            <mxPoint as="offset" />
            <Array as="points">
              <mxPoint x="500" y="181" />
              <mxPoint x="500" y="181" />
            </Array>
          </mxGeometry>
        </mxCell>
        <mxCell id="2jRnqf5aCOVSNF-pBYzn-98" value="1" style="text;html=1;align=center;verticalAlign=middle;resizable=0;points=[];autosize=1;strokeColor=none;fillColor=none;" vertex="1" parent="1">
          <mxGeometry x="515" y="148" width="30" height="30" as="geometry" />
        </mxCell>
        <mxCell id="2jRnqf5aCOVSNF-pBYzn-101" value="1" style="endArrow=open;html=1;endSize=12;startArrow=diamondThin;startSize=14;startFill=0;edgeStyle=orthogonalEdgeStyle;align=left;verticalAlign=bottom;rounded=0;entryX=0;entryY=0.25;entryDx=0;entryDy=0;exitX=0.998;exitY=0.039;exitDx=0;exitDy=0;exitPerimeter=0;" edge="1" parent="1" source="2jRnqf5aCOVSNF-pBYzn-4" target="2jRnqf5aCOVSNF-pBYzn-55">
          <mxGeometry x="-1" y="3" relative="1" as="geometry">
            <mxPoint x="420" y="240" as="sourcePoint" />
            <mxPoint x="550.0800000000002" y="240" as="targetPoint" />
            <Array as="points">
              <mxPoint x="485" y="242" />
              <mxPoint x="485" y="240" />
              <mxPoint x="540" y="240" />
              <mxPoint x="540" y="255" />
            </Array>
          </mxGeometry>
        </mxCell>
        <mxCell id="2jRnqf5aCOVSNF-pBYzn-102" value="0..1" style="text;html=1;align=center;verticalAlign=middle;resizable=0;points=[];autosize=1;strokeColor=none;fillColor=none;" vertex="1" parent="1">
          <mxGeometry x="508" y="208" width="40" height="30" as="geometry" />
        </mxCell>
        <mxCell id="2jRnqf5aCOVSNF-pBYzn-103" value="" style="endArrow=open;html=1;endSize=12;startArrow=diamondThin;startSize=14;startFill=0;edgeStyle=orthogonalEdgeStyle;align=left;verticalAlign=bottom;rounded=0;" edge="1" parent="1" target="2jRnqf5aCOVSNF-pBYzn-23">
          <mxGeometry x="-1" y="3" relative="1" as="geometry">
            <mxPoint x="350" y="350" as="sourcePoint" />
            <mxPoint x="350" y="390" as="targetPoint" />
          </mxGeometry>
        </mxCell>
        <mxCell id="2jRnqf5aCOVSNF-pBYzn-104" value="1" style="text;html=1;align=center;verticalAlign=middle;resizable=0;points=[];autosize=1;strokeColor=none;fillColor=none;" vertex="1" parent="1">
          <mxGeometry x="350" y="350" width="30" height="30" as="geometry" />
        </mxCell>
        <mxCell id="2jRnqf5aCOVSNF-pBYzn-105" value="0..*" style="text;html=1;align=center;verticalAlign=middle;resizable=0;points=[];autosize=1;strokeColor=none;fillColor=none;" vertex="1" parent="1">
          <mxGeometry x="345" y="388" width="40" height="30" as="geometry" />
        </mxCell>
        <mxCell id="2jRnqf5aCOVSNF-pBYzn-107" value="-content: dynamic" style="text;html=1;align=center;verticalAlign=middle;resizable=0;points=[];autosize=1;strokeColor=none;fillColor=none;" vertex="1" parent="1">
          <mxGeometry x="633" y="238" width="120" height="30" as="geometry" />
        </mxCell>
      </root>
    </mxGraphModel>
  </diagram>
</mxfile>
